<?xml version="1.0" encoding="utf-8"?>
<!-- Generator: Adobe Illustrator 18.1.1, SVG Export Plug-In . SVG Version: 6.00 Build 0)  -->
<svg version="1.1" id="Layer_1" xmlns="http://www.w3.org/2000/svg" xmlns:xlink="http://www.w3.org/1999/xlink" x="0px" y="0px"
	 viewBox="0 0 64 64" enable-background="new 0 0 64 64" xml:space="preserve">
<path fill="#FFFFFF" d="M31.4,37.9c-2.3,2.3-4.8,4.2-7.4,6c-1.7,1.1-3.6,2-5.6,1.9c-0.3,0-0.6,0.1-0.9,0.2c-1.1,0.8-2.4,1.2-3.8,1.4
	c-3.7,0.5-7.8-1.1-8.7-4.9C4.1,39.2,4,35.4,3.8,31.9c0-0.8,0.2-4.6-0.4-5.2c-4.6-5,5.5-8.7,8.9-9.9c8.6-3,20.5-1.5,23.4,8.3
	C37,29.5,35.1,33.6,31.4,37.9z"/>
<path fill="#8F181B" d="M32.2,22.6c2.6,3.1,2.3,6.5,0.4,9.9c-2.1,3.8-5.3,6.7-8.9,9.2c-0.5,0.3-1,0.6-1.5,1
	c-1.8,1.2-3.6,1.9-5.7,0.8c0,1.1-0.5,1.4-1.3,1.6c-2.2,0.7-4.7,0.6-6.6,0.1c-1.9-0.5-2-1.9-2.2-3.3c-0.7-4.1-0.9-8.3-1.1-12.5
	c0-0.8-0.1-1.6-0.2-2.4c-0.1-0.6-0.2-1.2-0.8-1.6c-0.8-0.5-0.6-1.2,0.3-2c1.1-1,2.4-1.7,3.8-2.4c5.1-2.4,10.4-3.7,15.8-2.9
	C27.5,18.6,30.2,20.2,32.2,22.6z M22.5,30.3c0.2-0.9-0.4-1.8-1.3-1.8c-1.9,0-3.5,0.7-4.9,2c-0.3,0.3-0.5,0.9-0.4,1.6
	c0.1,1.3,0.3,3.1,0.3,3.5c0,0.8,0.3,1,1,0.5c1.7-1.1,3.1-2.3,4.3-3.9C21.9,31.7,22.3,31.1,22.5,30.3z"/>
<path fill="#FFFFFF" d="M60.3,35.1c-1.8-0.8-3.8-0.7-3.3-0.8c-0.7,0.1-2.4,1.2-3.2,1.5c-2.8,1.2-5.4,1.4-5.5,0.8
	c-0.3-2.4,5.3-4.4,6.6-4.3c1.7,0.2,3.3,0.6,4.7-0.2c4.1-2.1,1.8-7.8,0.1-10.8c-2.9-4.8-8.9-3.6-13.3-2.1C39,21.8,33.9,27.3,33.7,35
	c0,0,0,0,0,0c0,0.3,0,0.6,0,0.9c0,0.7,0.1,1.4,0.2,2.1c1.5,11.2,16.3,12.1,25,7.2C64.1,41.5,61.5,35.7,60.3,35.1z"/>
<path fill="#8F181B" d="M60.3,28.8c0.1,1.8-0.3,2-2.1,1.7c-3.4-0.6-6.8-0.2-9.9,1.3c-2.2,1.1-3.3,2.7-3.1,4.6c0.2,1.8,1,2.7,2.8,2.8
	c2.5,0.2,4.8-0.5,6.9-1.7c0.2-0.1,0.5-0.3,0.7-0.4c0.7-0.4,1.3-0.6,1.7-0.6c0.7,0,1.2,0.5,1.6,1.6c1.6,3.9,0.5,6.2-3,7.5
	c-2.5,0.9-5.1,1.2-8,1.2c-1.9,0-4-0.2-6-0.9c-3.8-1.2-6.4-4.4-6.7-8.6c-0.7-7.8,3.7-13.9,11.8-15.9c2.7-0.7,5.4-1.1,8.3-0.7
	c0.6,0.1,1.1,0.2,1.5,0.5c0.3,0.2,0.5,0.4,0.7,0.6C59.2,24,60.2,26.2,60.3,28.8z"/>
</svg>
